<svg width="1071" height="1069" fill="none" xmlns="http://www.w3.org/2000/svg"><g clip-path="url(#favicon-light new__a)" fill="#fff"><path d="M696.58 0h-321l-.249 639.064c.307 2.382.307 2.382 3.767 5.15.675.529 95.822 73.268 96.482 73.786 2.07-1.018 4.059-2.037 6.016-3.262 3.758-2.398 7.594-4.587 11.598-6.547 23.252-10.915 48.582-13.34 73.035-4.956 3.775 1.305 7.392 2.224 11.351 2.765l1.469-1.836c.691-.863 112.969-136.109 113.639-136.947 5.09-6.466 5.09-6.466 4.891-25.392-.025-2.252-1.003-539.573-.999-541.825Zm354.13 386.68c12.41-29.545 20.99-63.469 19.62-95.68-21.33 5.938-42.33 13.5-73.876 5.938-4.419-1.441-8.502-2.508-13.125-2.938-2.228 1.902-226.431 275.795-228.473 277.898-5.02 5.939-5.02 5.939-4.776 22.166.032 1.967.83 332.002.826 333.97.093 46.656.252 93.306.423 139.966 7.188.04 14.376.08 21.564.1 3.688.01 7.376.02 11.064.04 14.762.09 29.519.48 44.17-1.61h.006c1.611-.27 1.613-.27 3.196-.53 33.579-5.2 66.21-16.06 95.849-32.78.731-.42 1.441-.82 2.151-1.22 11.993-6.61 23.055-14.07 33.928-22.4.704-.54 1.388-1.07 2.072-1.6 8.614-6.64 16.439-13.83 23.562-22.062 1.73-2.016 3.47-3.97 5.332-5.864 15.037-14.797 27.837-31.295 38.577-49.449.52-.892 1.03-1.759 1.53-2.625 25.75-44.115 38.41-96.868 37.07-147.83-.03-.738-.05-1.454-.07-2.17-.81-28.95-6.53-57.445-16.12-84.734-.88-2.469-1.77-4.935-2.61-7.416-7.07-21.151-17.81-40.798-30.83-58.86-.49-.677-.96-1.333-1.44-1.99-5.43-7.539-10.9-14.959-17.19-21.812-2.46-2.621-4.847-5.232-7.116-8.024-6.17-7.793-12.911-13.95-20.633-20.164a9877.976 9877.976 0 0 1-5.062-4c-5.507-4.496-11.076-8.827-16.875-12.938-3.422-2.419-6.833-4.845-10.195-7.347a850.05 850.05 0 0 0-20.289-14.844L920.329 534c6.383-5.078 12.78-9.966 19.687-14.312 14.513-9.109 29.419-19.258 41.372-31.614l1.692-1.807.249-.267c5.355-5.716 10.692-11.446 15.812-17.375 1.559-1.806 3.119-3.558 4.819-5.238 3.62-3.497 6.91-7.105 10-11.08.53-.699 1.04-1.378 1.56-2.057 12.51-16.479 24.1-34.625 31.56-54 1.16-3.223 2.32-6.409 3.63-9.57ZM321.58 0h-320v640c3 0 3 0 4.613-1.574C8.79 635.197 72.341 567.605 75.58 565c1.23-3.761 1.18-4.619-.562-8.312-10.95-20.266-14.488-43.704-9.676-66.258 7.11-27.299 21.357-49.386 45.496-64.465 23.103-12.914 48.472-18.167 74.582-11.863l3.16.898c17.223 4.837 35.939 15.476 47.168 29.633 1.023 1.321 2.06 2.632 3.151 3.897 3.327 3.843 6.442 7.779 9.25 12.018 11.985 20.538 15.515 47.886 9.97 70.768-1.453 5.886-2.778 11.664-3.539 17.684.818.644 58.144 44.312 58.938 44.938 2.697 2.132 4.923 3.493 8.062 5.062V0Z"/><path d="M230.956 595.875s-5.14-4.399-8.364-5.639c0 0-2.011-.236-5.148 1.886-9.245 6.015-9.245 6.015-19.34 10.562-20.592 8.9-45.916 9.678-66.912 1.701-5.445-2.128-10.794-4.523-16.611-5.385-2.75 1.725-106.364 111.463-108.777 113.643-6.06 6.809-6.06 6.809-5.654 34.792C.215 751.654 1.58 1068 1.58 1068h320.001s1.516-394.198 1.108-398.532c-1.784-5.583-5.439-7.858-10.207-10.801-2.808-1.522-2.808-1.522-4.788-3.142l-76.738-59.65ZM696.58 646h-3c-.438.464-69.575 85.488-70 85.938-2.669 3.016-5.848 5.816-6 10.062l2 2c11.502 18.518 15.662 37.789 15.336 59.273-.858 21.768-10.197 45.682-26.172 60.762L606.58 866c-20.915 19.46-44.215 30.603-73.232 30.351-25.296-.659-49.153-10.991-66.737-29.203L464.58 865c-10.251-10.504-17.577-22.125-22.351-36.042l-.643-1.94-.006-.018c-5.959-17.822-6.14-37.446-1.023-55.496.379-1.736 3.023-12.504 3.023-12.504-.715-.565-58.583-44.721-59.277-45.27-2.985-2.388-4.934-3.215-8.723-4.73v359h321V646ZM940.867 43.793C883.726 3.39 818.786 0 750.58 0v493h2c1.205-1.398 184.558-225.102 185.688-226.562 1.949-2.254 1.949-2.254 3.312-4.438.522-3.18.198-4.628-1.32-7.48-10.511-15.767-15.529-36.297-14.836-55.204l.156-2.316c1.017-22.745 10.859-46.178 26.535-62.578L954.58 132c13.49-13.431 30.731-21.574 49.05-26.293l2.95-.707c0-3 0-3-1.14-4.586-3.97-4.255-7.755-8.639-11.485-13.102-4.494-5.399-9.138-10.419-14.598-14.878L977.58 71c-10.229-8.326-20.714-16.252-31.609-23.688a359.512 359.512 0 0 1-5.104-3.519Z"/><ellipse cx="160.5" cy="510" rx="47.5" ry="47"/><ellipse cx="536.5" cy="798" rx="47.5" ry="47"/><ellipse cx="1023.5" cy="203" rx="47.5" ry="47"/></g><defs><clipPath id="favicon-light new__a"><path fill="#fff" d="M0 0h1071v1069H0z"/></clipPath></defs></svg>