<svg width="3028" height="1719" fill="none" xmlns="http://www.w3.org/2000/svg"><g clip-path="url(#logo-light-svg-full 1__a)" fill="#fff"><path d="M1674.58 0h-321l-.25 639.064c.31 2.382.31 2.382 3.77 5.15.67.529 95.82 73.268 96.48 73.786 2.07-1.018 4.06-2.037 6.02-3.262 3.75-2.398 7.59-4.587 11.59-6.547 23.26-10.915 48.59-13.34 73.04-4.956 3.77 1.305 7.39 2.224 11.35 2.765.5-.624.98-1.23 1.47-1.836.69-.863 112.97-136.109 113.64-136.947 5.09-6.466 5.09-6.466 4.89-25.392-.03-2.252-1-539.573-1-541.825Zm354.13 386.68c12.41-29.545 20.99-63.469 19.62-95.68-21.33 5.938-42.33 13.5-73.88 5.938-4.41-1.441-8.5-2.508-13.12-2.938-2.23 1.902-226.43 275.795-228.47 277.898-5.02 5.939-5.02 5.939-4.78 22.166.03 1.967.83 332.002.83 333.97.09 46.656.25 93.306.42 139.966 7.19.04 14.38.08 21.56.1 3.69.01 7.38.02 11.07.04 14.76.09 29.52.48 44.17-1.61 1.61-.27 1.62-.27 3.2-.53 33.58-5.2 66.21-16.06 95.85-32.78.73-.42 1.44-.82 2.15-1.22 11.99-6.61 23.05-14.07 33.93-22.4.7-.54 1.39-1.07 2.07-1.6 8.61-6.64 16.44-13.83 23.56-22.062 1.73-2.016 3.47-3.97 5.33-5.864 15.04-14.797 27.84-31.295 38.58-49.449.52-.892 1.03-1.759 1.53-2.625 25.75-44.115 38.41-96.868 37.07-147.83-.03-.738-.05-1.454-.07-2.17-.81-28.95-6.53-57.445-16.12-84.734-.88-2.469-1.77-4.935-2.61-7.416-7.07-21.151-17.81-40.798-30.83-58.86-.49-.677-.96-1.333-1.44-1.99-5.43-7.539-10.9-14.959-17.19-21.812-2.46-2.621-4.85-5.232-7.12-8.024-6.17-7.793-12.91-13.95-20.63-20.164-1.69-1.333-3.37-2.666-5.06-4-5.51-4.496-11.08-8.827-16.88-12.938-3.42-2.419-6.83-4.845-10.19-7.347a840.099 840.099 0 0 0-20.29-14.844c-.9-.636-1.77-1.254-2.64-1.871 6.38-5.078 12.78-9.966 19.69-14.312 14.51-9.109 29.42-19.258 41.37-31.614.89-.948.97-1.038 1.69-1.807l.25-.267c5.35-5.716 10.69-11.446 15.81-17.375 1.56-1.806 3.12-3.558 4.82-5.238 3.62-3.497 6.91-7.105 10-11.08.53-.699 1.04-1.378 1.56-2.057 12.51-16.479 24.1-34.625 31.56-54 1.16-3.223 2.32-6.409 3.63-9.57ZM1299.58 0h-320v640c3 0 3 0 4.613-1.574 2.597-3.229 66.147-70.821 69.387-73.426 1.23-3.761 1.18-4.619-.56-8.312-10.95-20.266-14.49-43.704-9.68-66.258 7.11-27.299 21.36-49.386 45.5-64.465 23.1-12.914 48.47-18.167 74.58-11.863l3.16.898c17.22 4.837 35.94 15.476 47.17 29.633a93.384 93.384 0 0 0 3.15 3.897c3.33 3.843 6.44 7.779 9.25 12.018 11.98 20.538 15.51 47.886 9.97 70.768-1.45 5.886-2.78 11.664-3.54 17.684.82.644 58.14 44.312 58.94 44.938 2.69 2.132 4.92 3.493 8.06 5.062V0Z"/><path d="M1208.96 595.875s-5.14-4.399-8.37-5.639c0 0-2.01-.236-5.15 1.886-9.24 6.015-9.24 6.015-19.34 10.562-20.59 8.9-45.91 9.678-66.91 1.701-5.44-2.128-10.79-4.523-16.61-5.385-2.75 1.725-106.363 111.463-108.776 113.643-6.061 6.809-6.061 6.809-5.654 34.792.065 4.219 1.431 320.565 1.431 320.565h319.999s1.52-394.198 1.11-398.532c-1.79-5.583-5.44-7.858-10.21-10.801-2.81-1.522-2.81-1.522-4.79-3.142l-76.73-59.65ZM1674.58 646h-3c-.44.464-69.57 85.488-70 85.938-2.67 3.016-5.85 5.816-6 10.062l2 2c11.5 18.518 15.66 37.789 15.34 59.273-.86 21.768-10.2 45.682-26.18 60.762-.73.668-1.45 1.317-2.16 1.965-20.91 19.46-44.21 30.603-73.23 30.351-25.3-.659-49.15-10.991-66.74-29.203l-2.03-2.148c-10.25-10.504-17.58-22.125-22.35-36.042-.33-.983-.33-.989-.64-1.94l-.01-.018c-5.96-17.822-6.14-37.446-1.02-55.496.38-1.736 3.02-12.504 3.02-12.504-.71-.565-58.58-44.721-59.28-45.27-2.98-2.388-4.93-3.215-8.72-4.73v359h321V646Zm244.29-602.207C1861.73 3.39 1796.79 0 1728.58 0v493h2c1.21-1.398 184.56-225.102 185.69-226.562 1.95-2.254 1.95-2.254 3.31-4.438.52-3.18.2-4.628-1.32-7.48-10.51-15.767-15.53-36.297-14.84-55.204.06-.787.11-1.552.16-2.316 1.02-22.745 10.86-46.178 26.54-62.578.83-.824 1.65-1.623 2.46-2.422 13.49-13.431 30.73-21.574 49.05-26.293l2.95-.707c0-3 0-3-1.14-4.586-3.97-4.255-7.75-8.639-11.48-13.102-4.5-5.399-9.14-10.419-14.6-14.878-.61-.488-1.19-.96-1.78-1.434-10.23-8.326-20.71-16.252-31.61-23.688a359.131 359.131 0 0 1-5.1-3.519Z"/><ellipse cx="1138.5" cy="510" rx="47.5" ry="47"/><ellipse cx="1514.5" cy="798" rx="47.5" ry="47"/><ellipse cx="2001.5" cy="203" rx="47.5" ry="47"/><path d="M277.719 1577.48c-13.308 10.57-30.625 18.77-51.953 24.61-21.328 5.83-47.578 8.75-78.75 8.75-30.99 0-63.985-2.83-98.985-8.48v-360.39c35.365-5.65 65.99-8.48 91.875-8.48 26.068 0 47.396 2.46 63.985 7.39 16.77 4.92 30.442 11.57 41.015 19.96 20.782 16.22 31.172 37.27 31.172 63.16 0 25.7-9.388 47.03-28.164 63.98 22.24 6.93 39.466 20.06 51.68 39.38 11.12 17.32 16.679 36.55 16.679 57.69 0 20.97-3.099 38.92-9.296 53.87-6.016 14.95-15.769 27.8-29.258 38.56Zm-157.227-199.61c7.656 1.27 17.227 1.91 28.711 1.91 11.485 0 20.873-1.46 28.164-4.37 7.474-3.1 13.216-6.93 17.227-11.49 6.562-7.47 9.844-17.86 9.844-31.17 0-27.89-16.407-41.84-49.219-41.84-13.854 0-25.43.55-34.727 1.64v85.32Zm40.469 58.51c-15.313 0-28.802 1.01-40.469 3.01v107.46c12.761 3.28 26.159 4.92 40.196 4.92 14.036 0 26.341-1.64 36.914-4.92 10.755-3.46 19.778-8.11 27.07-13.94 14.766-12.03 22.148-27.35 22.148-45.94 0-33.73-28.619-50.59-85.859-50.59Zm194.141 27.07c0-21.33 3.645-41.1 10.937-59.33 7.292-18.23 17.591-34.18 30.899-47.85 28.437-28.99 65.624-43.48 111.562-43.48 38.828 0 70 12.85 93.516 38.55 23.151 24.8 34.726 55.97 34.726 93.52 0 14.4-1.094 24.24-3.281 29.53-18.229 5.1-55.326 7.66-111.289 7.66h-96.25c4.739 19.5 15.768 34.72 33.086 45.66 17.318 10.76 39.831 16.13 67.539 16.13 28.984 0 53.867-5.19 74.648-15.58 5.469-2.74 9.571-5.29 12.305-7.66-.365 7.66-.82 15.5-1.367 23.52l-3.008 42.65c-13.854 9.48-36.276 16.05-67.266 19.69-9.114 1.09-17.864 1.64-26.25 1.64-46.302 0-84.583-13.49-114.843-40.47-30.443-27.16-45.664-61.89-45.664-104.18ZM564.008 1429c-7.474-39.19-28.802-58.79-63.985-58.79-27.708 0-48.763 11.94-63.164 35.82-4.375 7.29-7.747 15.31-10.117 24.06 4.375.19 9.753.37 16.133.55h20.234c6.745.18 13.217.27 19.414.27h15.586c9.297 0 18.412-.09 27.344-.27l22.422-.82c6.016-.18 11.393-.46 16.133-.82Zm259.219 114.84c23.515 0 39.648-6.1 48.398-18.32h2.187l.821 63.44c-8.932 8.93-25.521 14.86-49.766 17.77-6.562.92-14.765 1.37-24.609 1.37-9.662 0-20.235-1.82-31.719-5.47-11.302-3.64-20.963-9.57-28.984-17.77-16.589-16.95-24.883-43.48-24.883-79.57v-124.14h-41.289c-.182-5.29-.274-10.67-.274-16.13v-42.11c0-3.1.092-4.65.274-4.65h41.289v-77.93h66.992v77.93h75.195v62.89h-75.195v111.56c0 28.62 7.93 44.94 23.789 48.95 5.104 1.45 11.029 2.18 17.774 2.18Zm234.063 0c23.51 0 39.65-6.1 48.4-18.32h2.19l.82 63.44c-8.94 8.93-25.53 14.86-49.77 17.77-6.56.92-14.77 1.37-24.61 1.37-9.66 0-20.23-1.82-31.72-5.47-11.301-3.64-20.962-9.57-28.983-17.77-16.588-16.95-24.883-43.48-24.883-79.57v-124.14h-41.289c-.182-5.29-.273-10.67-.273-16.13v-42.11c0-3.1.091-4.65.273-4.65h41.289v-77.93h66.996v77.93h75.19v62.89h-75.19v111.56c0 28.62 7.93 44.94 23.79 48.95 5.1 1.45 11.02 2.18 17.77 2.18Zm93.51-80.39c0-21.33 3.65-41.1 10.94-59.33 7.29-18.23 17.59-34.18 30.9-47.85 28.44-28.99 65.63-43.48 111.56-43.48 38.83 0 70 12.85 93.52 38.55 23.15 24.8 34.73 55.97 34.73 93.52 0 14.4-1.1 24.24-3.29 29.53-18.23 5.1-55.32 7.66-111.28 7.66h-96.26c4.74 19.5 15.77 34.72 33.09 45.66 17.32 10.76 39.83 16.13 67.54 16.13 28.98 0 53.87-5.19 74.65-15.58 5.47-2.74 9.57-5.29 12.3-7.66-.36 7.66-.82 15.5-1.36 23.52l-3.01 42.65c-13.86 9.48-36.28 16.05-67.27 19.69-9.11 1.09-17.86 1.64-26.25 1.64-46.3 0-84.58-13.49-114.84-40.47-30.44-27.16-45.67-61.89-45.67-104.18Zm208.91-34.45c-7.47-39.19-28.8-58.79-63.98-58.79-27.71 0-48.77 11.94-63.17 35.82-4.37 7.29-7.74 15.31-10.11 24.06 4.37.19 9.75.37 16.13.55h20.23c6.75.18 13.22.27 19.42.27h15.58c9.3 0 18.41-.09 27.35-.27l22.42-.82c6.01-.18 11.39-.46 16.13-.82Zm196.88 144.38c0 15.67.36 25.88 1.09 30.62h-68.09v-285.74h67v21.05c15.49-17.68 31.71-26.52 48.67-26.52 17.13 0 30.62 2.1 40.47 6.29l-4.93 73.55-1.09.82c-6.38-11.3-19.6-16.95-39.65-16.95-7.65 0-15.49 2.64-23.51 7.93-7.84 5.1-14.5 11.94-19.96 20.51v168.44Zm185.93 0c0 15.67.37 25.88 1.1 30.62h-69.46v-407.42h68.36v376.8Zm50.86 125.78 18.05-14.5c27.16-22.05 49.67-54.59 67.54-97.61l12.58-30.35-104.73-238.44h76.56l65.63 165.15 60.97-165.15h78.75c-9.47 13.12-21.05 37.55-34.72 73.28l-41.02 101.44c-54.87 129.07-97.89 205.99-129.06 230.79l-70.55-24.61Zm433.67-155.32c23.52 0 39.65-6.1 48.4-18.32h2.19l.82 63.44c-8.93 8.93-25.52 14.86-49.76 17.77-6.57.92-14.77 1.37-24.61 1.37-9.67 0-20.24-1.82-31.72-5.47-11.3-3.64-20.97-9.57-28.99-17.77-16.59-16.95-24.88-43.48-24.88-79.57v-124.14h-41.29c-.18-5.29-.27-10.67-.27-16.13v-42.11c0-3.1.09-4.65.27-4.65h41.29v-77.93h66.99v77.93h75.2v62.89h-75.2v111.56c0 28.62 7.93 44.94 23.79 48.95 5.11 1.45 11.03 2.18 17.77 2.18Zm98.44-307.07c14.59-22.78 29.81-42.84 45.67-60.15l58.79 46.21c-7.84 9.66-15.13 19.14-21.88 28.44 0 0-7.02 9.93-21.05 29.8l-61.53-44.3Zm71.92 336.61c0 15.67.36 25.88 1.09 30.62h-69.45v-285.74h68.36v255.12Zm300.78 4.1c-20.42 20.41-52.41 30.62-95.98 30.62-42.29 0-76.83-12.85-103.63-38.55-27.16-26.07-40.74-60.71-40.74-103.91 0-43.93 13.39-80.03 40.19-108.28 28.44-29.71 66.45-44.57 114.02-44.57 33.73 0 61.98 7.38 84.77 22.15l-10.94 70-1.91-.28c-8.75-10.57-17.96-17.5-27.62-20.78-15.68-5.47-31.35-8.2-47.03-8.2s-27.98 2-36.91 6.02c-8.94 4.01-16.59 9.57-22.97 16.68-12.76 14.58-19.14 33.9-19.14 57.96 0 42.66 14.76 70.55 44.29 83.68 10.21 4.37 20.97 6.56 32.27 6.56 11.48 0 21.42-1 29.8-3.01 8.57-2 16.32-4.74 23.25-8.2 14.76-7.29 24.79-15.77 30.07-25.43l1.92.82 6.29 66.72Zm153.4 30.62c-51.41 0-90.15-9.39-116.21-28.16.36-5.47.91-11.67 1.64-18.6l2.46-19.68c1.45-12.95 2.37-20.97 2.73-24.07.37-3.28.64-5.01.82-5.19.18-.37 1.64 1.09 4.38 4.37 2.73 3.1 7.93 6.93 15.58 11.49 7.66 4.56 16.5 8.57 26.53 12.03 21.69 7.47 44.29 11.21 67.81 11.21 31.53 0 47.3-10.48 47.3-31.45 0-6.74-3.01-11.75-9.02-15.03-10.76-5.47-26.62-9.57-47.58-12.31-20.78-2.92-37.82-7.11-51.13-12.58-13.31-5.47-24.16-12.03-32.54-19.68-15.5-14.41-23.24-33.27-23.24-56.61 0-28.43 10.93-50.76 32.81-66.99 21.69-16.04 51.68-24.06 89.96-24.06 37.92 0 70.27 10.75 97.07 32.26-1.28 4.74-2.64 9.3-4.1 13.68-4.19 12.03-7.29 20.69-9.3 25.97l-6.29 16.14c-.36 1.45-.63 2.18-.82 2.18-.36 0-1.82-1.91-4.37-5.74-11.49-13.31-29.35-22.06-53.6-26.25-7.47-1.46-15.13-2.19-22.96-2.19-33.18 0-49.77 10.03-49.77 30.08 0 6.93 3.46 12.22 10.39 15.86 12.94 6.93 30.63 12.03 53.05 15.31 22.6 3.29 39.74 7.75 51.4 13.4 11.67 5.47 21.06 12.12 28.17 19.96 13.12 14.22 19.69 33.09 19.69 56.6 0 25.71-10.3 46.58-30.9 62.62-21.51 16.95-51.5 25.43-89.96 25.43Z"/></g><defs><clipPath id="logo-light-svg-full 1__a"><path fill="#fff" d="M0 0h3028v1719H0z"/></clipPath></defs></svg>