<svg xmlns="http://www.w3.org/2000/svg" width="800" height="800" viewBox="0 0 32 32" fill="none" xmlns:v="https://vecta.io/nano"><path d="M30.001 16.311c0-1.151-.095-1.991-.302-2.862H16.287v5.196h7.873c-.159 1.291-1.016 3.236-2.921 4.542l-.027.174 4.241 3.22.294.029c2.698-2.442 4.254-6.036 4.254-10.298z" fill="#4285f4"/><path d="M16.286 30c3.857 0 7.095-1.245 9.46-3.391l-4.508-3.422c-1.206.825-2.825 1.4-4.952 1.4-3.778 0-6.984-2.442-8.127-5.818l-.168.014-4.41 3.345-.058.157C5.874 26.857 10.699 30 16.286 30z" fill="#34a853"/><path d="M8.16 18.769c-.302-.871-.476-1.804-.476-2.769s.175-1.898.46-2.769l-.008-.186-4.465-3.398-.146.068C2.557 11.613 2.001 13.745 2.001 16s.556 4.387 1.524 6.284l4.635-3.516z" fill="#fbbc05"/><path d="M16.286 7.413c2.683 0 4.492 1.136 5.524 2.085l4.032-3.858C23.366 3.384 20.144 2 16.286 2 10.699 2 5.874 5.142 3.524 9.715l4.619 3.516c1.159-3.376 4.365-5.818 8.143-5.818z" fill="#eb4335"/></svg>