<svg xmlns="http://www.w3.org/2000/svg" width="800" height="800" viewBox="0 -4 48 48" xmlns:v="https://vecta.io/nano"><path d="M48 4.735c-1.764.803-3.663 1.346-5.655 1.589C44.38 5.076 45.94 3.097 46.676.74c-1.905 1.156-4.009 1.996-6.257 2.447C38.627 1.225 36.066 0 33.231 0c-5.435 0-9.844 4.521-9.844 10.098 0 .792.085 1.56.254 2.3C15.456 11.975 8.201 7.96 3.341 1.843a10.28 10.28 0 0 0-1.333 5.082c0 3.502 1.738 6.593 4.381 8.404-1.612-.049-3.133-.508-4.463-1.26v.124c0 4.894 3.395 8.977 7.903 9.901a9.39 9.39 0 0 1-2.595.355c-.634 0-1.254-.061-1.854-.179 1.254 4.01 4.888 6.931 9.199 7.009-3.37 2.71-7.618 4.325-12.23 4.325A19.71 19.71 0 0 1 0 35.467C4.359 38.327 9.537 40 15.096 40c18.116 0 28.019-15.385 28.019-28.73 0-.439-.008-.878-.025-1.309A20.21 20.21 0 0 0 48 4.735" fill="#00aaec" fill-rule="evenodd"/></svg>