<svg xmlns="http://www.w3.org/2000/svg" fill="none" viewBox="0 0 64 64"><rect width="64" height="64" fill="#fff" rx="32"/><rect width="63" height="63" x=".5" y=".5" stroke="#000" stroke-opacity=".1" rx="31.5"/><path fill="url(#a)" fill-rule="evenodd" d="M52.894 19.424a4.8 4.8 0 0 0-.468-.862c-.424-.647-1.062-1.441-1.77-2.19v-.004c-.758-.761-1.53-1.42-2.157-1.856-.314-.215-.599-.386-.835-.48a1.1 1.1 0 0 0-.35-.09.44.44 0 0 0-.354.118L32.285 28.353a.425.425 0 0 1-.59 0L17.02 14.06a.48.48 0 0 0-.354-.117c-.11.008-.233.04-.35.09-.237.093-.525.264-.835.48-.626.435-1.4 1.098-2.157 1.855v.004c-.708.749-1.347 1.543-1.77 2.19-.212.321-.379.618-.468.862a1.4 1.4 0 0 0-.085.355.46.46 0 0 0 .126.358l16.396 15.957a.75.75 0 0 1 .228.541l-.016 19.519c0 .146.085.256.159.325a1.1 1.1 0 0 0 .293.187c.228.11.541.212.911.297.75.171 1.77.294 2.902.294 1.131 0 2.153-.123 2.902-.294.37-.085.683-.187.911-.297a1.2 1.2 0 0 0 .293-.187.45.45 0 0 0 .159-.325l-.016-19.519c0-.203.081-.399.228-.541l16.396-15.957a.46.46 0 0 0 .127-.358 1.2 1.2 0 0 0-.086-.355z" clip-rule="evenodd"/><defs><linearGradient id="a" x1="11" x2="52.605" y1="36.417" y2="32.821" gradientUnits="userSpaceOnUse"><stop offset=".3" stop-color="#ff6a16"/><stop offset=".543" stop-color="#ff3227"/><stop offset=".89" stop-color="#f6d"/></linearGradient></defs></svg>