<svg xmlns="http://www.w3.org/2000/svg" width="800" height="800" viewBox="0 0 1024 1024" xmlns:v="https://vecta.io/nano"><circle cx="512" cy="512" r="512"/><path d="M362.4 525l162.2-162.2c11-11 25.7-17.1 41.3-17.1s30.3 6.1 41.3 17.1l12.6 12.6 25.3-25.3-12.6-12.6C614.8 319.7 591.1 310 566 310c-25.2 0-48.8 9.8-66.6 27.5L337.1 499.7l25.3 25.3zM579 416.4l-25.3-25.3-162.3 162.2c-22.8 22.8-59.8 22.8-82.6 0s-22.8-59.9 0-82.6l140-140-25.3-25.3-140 140c-36.7 36.7-36.7 96.5 0 133.2 17.8 17.8 41.4 27.5 66.6 27.5s48.8-9.8 66.6-27.5L579 416.4zm161.5 29c-17.8-17.8-41.4-27.5-66.6-27.5s-48.8 9.8-66.6 27.5L445 607.6l25.3 25.3 162.2-162.2c22.8-22.8 59.9-22.8 82.6 0 11 11 17.1 25.7 17.1 41.3s-6.1 30.3-17.1 41.3l-140 140 25.3 25.3 140-140c36.8-36.7 36.8-96.5.1-133.2M661.6 499L499.4 661.2c-22.8 22.8-59.8 22.8-82.6 0l-12.6-12.6-25.3 25.3 12.6 12.6c17.8 17.8 41.4 27.5 66.6 27.5s48.8-9.8 66.6-27.5l162.2-162.2-25.3-25.3z" fill="#fff"/></svg>