<svg width="5188" height="1719" viewBox="0 0 5188 1719" fill="none" xmlns="http://www.w3.org/2000/svg">
<g clip-path="url(#clip0_28_14)">
<g clip-path="url(#clip1_28_14)">
<path d="M882.58 325H561.58C561.58 325.824 561.331 963.265 561.331 964.064C561.638 966.446 561.638 966.446 565.098 969.214L565.098 969.214C565.773 969.743 660.92 1042.48 661.58 1043C663.65 1041.98 665.639 1040.96 667.596 1039.74C671.354 1037.34 675.19 1035.15 679.194 1033.19C702.446 1022.28 727.776 1019.85 752.229 1028.23C756.004 1029.54 759.621 1030.46 763.58 1031C764.08 1030.38 764.564 1029.77 765.049 1029.16C765.74 1028.3 878.018 893.055 878.688 892.217C883.778 885.751 883.778 885.751 883.579 866.825C883.554 864.573 882.576 327.252 882.58 325Z" fill="#010101"/>
<path d="M1236.71 711.68C1249.12 682.135 1257.7 648.211 1256.33 616C1235 621.938 1214 629.5 1182.45 621.938C1178.04 620.497 1173.95 619.43 1169.33 619C1167.1 620.902 942.898 894.795 940.856 896.898C935.836 902.837 935.836 902.837 936.08 919.064C936.112 921.031 936.91 1251.07 936.906 1253.03C936.999 1299.69 937.158 1346.34 937.329 1393C944.517 1393.04 951.705 1393.08 958.893 1393.1C962.581 1393.11 966.269 1393.12 969.957 1393.14C984.719 1393.23 999.476 1393.62 1014.13 1391.53L1014.13 1391.53C1015.74 1391.26 1015.75 1391.26 1017.33 1391C1050.91 1385.8 1083.54 1374.94 1113.18 1358.22C1113.91 1357.8 1114.62 1357.4 1115.33 1357C1127.32 1350.39 1138.38 1342.93 1149.26 1334.6C1149.96 1334.06 1150.65 1333.53 1151.33 1333C1159.94 1326.36 1167.77 1319.17 1174.89 1310.94C1176.62 1308.92 1178.36 1306.97 1180.22 1305.07C1195.26 1290.28 1208.06 1273.78 1218.8 1255.62C1219.32 1254.73 1219.83 1253.87 1220.33 1253C1246.08 1208.89 1258.74 1156.13 1257.4 1105.17C1257.37 1104.43 1257.35 1103.72 1257.33 1103C1256.52 1074.05 1250.8 1045.55 1241.21 1018.27C1240.33 1015.8 1238.6 1010.85 1238.6 1010.85C1231.53 989.699 1207.77 951.99 1207.77 951.99L1207.05 950.995L1206.33 950L1189.14 928.188L1182.02 920.164L1167.5 906C1167.5 906 1158.02 897.334 1156.33 896L1129.26 875.715C1122.57 870.658 1115.81 865.727 1108.97 860.871C1108.07 860.235 1107.2 859.617 1106.33 859C1112.71 853.922 1119.11 849.034 1126.02 844.688C1140.53 835.579 1155.44 825.43 1167.39 813.074C1168.28 812.126 1168.36 812.036 1169.08 811.267L1169.33 811C1169.33 811 1180.02 799.554 1185.14 793.625C1186.7 791.819 1188.26 790.067 1189.96 788.387C1193.58 784.89 1201.52 775.25 1201.52 775.25C1201.52 775.25 1225.62 740.625 1233.08 721.25C1234.24 718.027 1235.4 714.841 1236.71 711.68Z" fill="#1E78C6"/>
<path d="M507.58 325H187.58V965C190.58 965 190.58 965 192.193 963.426C194.79 960.197 258.341 892.605 261.58 890C262.81 886.239 262.76 885.381 261.018 881.688C250.068 861.422 246.53 837.984 251.342 815.43C258.451 788.131 272.699 766.044 296.838 750.965C319.941 738.051 345.31 732.798 371.42 739.102C372.494 739.407 373.537 739.704 374.58 740C391.803 744.837 410.519 755.476 421.748 769.633C422.771 770.954 423.808 772.265 424.899 773.53C428.226 777.373 431.341 781.309 434.149 785.548C446.134 806.086 449.664 833.434 444.119 856.316C442.666 862.202 441.341 867.98 440.58 874C441.398 874.644 498.724 918.312 499.518 918.938C502.215 921.07 504.441 922.431 507.58 924V325Z" fill="#010101"/>
<path d="M416.956 920.875C416.956 920.875 411.816 916.476 408.592 915.236C408.592 915.236 406.581 915 403.444 917.122L403.444 917.122C394.199 923.137 394.199 923.137 384.104 927.684C363.512 936.584 338.188 937.362 317.192 929.385C311.747 927.257 306.398 924.862 300.581 924C297.831 925.725 194.217 1035.46 191.804 1037.64C185.743 1044.45 185.743 1044.45 186.15 1072.43C186.215 1076.65 187.581 1393 187.581 1393H507.581C507.581 1393 509.097 998.802 508.689 994.468C506.905 988.885 503.25 986.61 498.482 983.667L498.482 983.667C495.674 982.145 495.674 982.145 493.694 980.525L416.956 920.875Z" fill="#1E78C6"/>
<path d="M882.58 971H879.58C879.142 971.464 810.005 1056.49 809.58 1056.94C806.911 1059.95 803.732 1062.75 803.58 1067L805.58 1069C817.082 1087.52 821.242 1106.79 820.916 1128.27C820.058 1150.04 810.719 1173.95 794.744 1189.03C794.008 1189.7 793.294 1190.35 792.58 1191C771.665 1210.46 748.365 1221.6 719.348 1221.35C694.052 1220.69 670.195 1210.36 652.611 1192.15C651.921 1191.42 651.25 1190.71 650.58 1190C640.329 1179.5 633.003 1167.88 628.229 1153.96C627.904 1152.98 627.902 1152.97 627.586 1152.02L627.58 1152C621.621 1134.18 621.44 1114.55 626.557 1096.5C626.936 1094.77 629.58 1084 629.58 1084C628.865 1083.43 570.997 1039.28 570.303 1038.73C567.318 1036.34 565.369 1035.51 561.58 1034V1393H882.58V971Z" fill="#1E78C6"/>
<path d="M1126.87 368.793C1069.73 328.39 1004.79 325 936.58 325V818H938.58C939.785 816.602 1123.14 592.898 1124.27 591.438C1126.22 589.184 1126.22 589.184 1127.58 587C1128.1 583.82 1127.78 582.372 1126.26 579.52C1115.75 563.753 1110.73 543.223 1111.42 524.316C1111.48 523.529 1111.53 522.764 1111.58 522C1112.6 499.255 1122.44 475.822 1138.11 459.422C1138.95 458.598 1139.77 457.799 1140.58 457C1154.07 443.569 1171.31 435.426 1189.63 430.707L1192.58 430C1192.58 427 1192.58 427 1191.44 425.414C1187.47 421.159 1183.69 416.775 1179.96 412.312C1175.46 406.913 1170.82 401.893 1165.36 397.434C1164.75 396.946 1164.17 396.473 1163.58 396C1153.35 387.674 1142.87 379.748 1131.97 372.312C1130.26 371.151 1128.56 369.984 1126.87 368.793Z" fill="#010101"/>
<ellipse cx="721.5" cy="1122" rx="47.5" ry="47" fill="#2580CD"/>
<ellipse cx="347.5" cy="835" rx="47.5" ry="47" fill="#2580CD"/>
<ellipse cx="1209.5" cy="527" rx="47.5" ry="47" fill="#2580CD"/>
</g>
<path d="M1714.78 1104.79C1698.62 1117.63 1677.59 1127.59 1651.69 1134.68C1625.79 1141.76 1593.92 1145.3 1556.07 1145.3C1518.44 1145.3 1478.37 1141.87 1435.87 1135.01V697.391C1478.81 690.529 1516 687.098 1547.43 687.098C1579.09 687.098 1604.99 690.086 1625.13 696.062C1645.49 702.039 1662.09 710.118 1674.93 720.301C1700.17 740.001 1712.78 765.568 1712.78 797C1712.78 828.211 1701.39 854.109 1678.59 874.695C1705.59 883.107 1726.51 899.044 1741.34 922.508C1754.84 943.536 1761.59 966.889 1761.59 992.566C1761.59 1018.02 1757.83 1039.83 1750.3 1057.98C1743 1076.13 1731.16 1091.73 1714.78 1104.79ZM1523.86 862.41C1533.16 863.96 1544.78 864.734 1558.72 864.734C1572.67 864.734 1584.07 862.964 1592.92 859.422C1602 855.659 1608.97 851.01 1613.84 845.477C1621.81 836.401 1625.79 823.784 1625.79 807.625C1625.79 773.758 1605.87 756.824 1566.03 756.824C1549.2 756.824 1535.15 757.488 1523.86 758.816V862.41ZM1573 933.465C1554.41 933.465 1538.03 934.682 1523.86 937.117V1067.61C1539.35 1071.59 1555.62 1073.58 1572.67 1073.58C1589.71 1073.58 1604.65 1071.59 1617.49 1067.61C1630.55 1063.4 1641.51 1057.76 1650.36 1050.67C1668.29 1036.06 1677.26 1017.47 1677.26 994.891C1677.26 953.94 1642.5 933.465 1573 933.465ZM1808.74 966.336C1808.74 940.438 1813.17 916.421 1822.02 894.285C1830.88 872.15 1843.38 852.781 1859.54 836.18C1894.07 800.984 1939.23 783.387 1995.01 783.387C2042.16 783.387 2080.01 798.992 2108.57 830.203C2136.68 860.307 2150.73 898.159 2150.73 943.758C2150.73 961.245 2149.41 973.198 2146.75 979.617C2124.61 985.815 2079.57 988.914 2011.61 988.914H1894.74C1900.49 1012.6 1913.89 1031.08 1934.91 1044.36C1955.94 1057.42 1983.28 1063.95 2016.93 1063.95C2052.12 1063.95 2082.34 1057.64 2107.57 1045.03C2114.21 1041.71 2119.19 1038.61 2122.51 1035.73C2122.07 1045.03 2121.52 1054.55 2120.85 1064.29L2117.2 1116.08C2100.38 1127.59 2073.15 1135.56 2035.52 1139.99C2024.45 1141.32 2013.83 1141.98 2003.64 1141.98C1947.42 1141.98 1900.94 1125.6 1864.19 1092.84C1827.23 1059.86 1808.74 1017.69 1808.74 966.336ZM2062.41 924.5C2053.34 876.909 2027.44 853.113 1984.72 853.113C1951.07 853.113 1925.51 867.612 1908.02 896.609C1902.71 905.464 1898.61 915.203 1895.73 925.828C1901.05 926.049 1907.58 926.271 1915.32 926.492H1939.89C1948.08 926.714 1955.94 926.824 1963.47 926.824H1982.39C1993.68 926.824 2004.75 926.714 2015.6 926.492L2042.82 925.496C2050.13 925.275 2056.66 924.943 2062.41 924.5ZM2377.18 1063.95C2405.73 1063.95 2425.32 1056.54 2435.95 1041.71H2438.61L2439.6 1118.74C2428.75 1129.58 2408.61 1136.78 2379.17 1140.32C2371.2 1141.43 2361.24 1141.98 2349.29 1141.98C2337.56 1141.98 2324.72 1139.77 2310.77 1135.34C2297.05 1130.91 2285.32 1123.72 2275.58 1113.76C2255.43 1093.17 2245.36 1060.96 2245.36 1017.14V866.395H2195.23C2195 859.975 2194.89 853.445 2194.89 846.805V795.672C2194.89 791.909 2195 790.027 2195.23 790.027H2245.36V695.398H2326.71V790.027H2418.02V866.395H2326.71V1001.86C2326.71 1036.62 2336.34 1056.43 2355.6 1061.3C2361.8 1063.07 2368.99 1063.95 2377.18 1063.95ZM2661.4 1063.95C2689.95 1063.95 2709.54 1056.54 2720.17 1041.71H2722.82L2723.82 1118.74C2712.97 1129.58 2692.83 1136.78 2663.39 1140.32C2655.42 1141.43 2645.46 1141.98 2633.51 1141.98C2621.78 1141.98 2608.94 1139.77 2594.99 1135.34C2581.27 1130.91 2569.54 1123.72 2559.8 1113.76C2539.65 1093.17 2529.58 1060.96 2529.58 1017.14V866.395H2479.45C2479.22 859.975 2479.11 853.445 2479.11 846.805V795.672C2479.11 791.909 2479.22 790.027 2479.45 790.027H2529.58V695.398H2610.93V790.027H2702.24V866.395H2610.93V1001.86C2610.93 1036.62 2620.56 1056.43 2639.82 1061.3C2646.01 1063.07 2653.21 1063.95 2661.4 1063.95ZM2774.95 966.336C2774.95 940.438 2779.38 916.421 2788.23 894.285C2797.09 872.15 2809.59 852.781 2825.75 836.18C2860.28 800.984 2905.44 783.387 2961.22 783.387C3008.37 783.387 3046.22 798.992 3074.78 830.203C3102.89 860.307 3116.95 898.159 3116.95 943.758C3116.95 961.245 3115.62 973.198 3112.96 979.617C3090.83 985.815 3045.78 988.914 2977.82 988.914H2860.95C2866.7 1012.6 2880.1 1031.08 2901.12 1044.36C2922.15 1057.42 2949.49 1063.95 2983.14 1063.95C3018.33 1063.95 3048.55 1057.64 3073.78 1045.03C3080.42 1041.71 3085.4 1038.61 3088.72 1035.73C3088.28 1045.03 3087.73 1054.55 3087.06 1064.29L3083.41 1116.08C3066.59 1127.59 3039.36 1135.56 3001.73 1139.99C2990.66 1141.32 2980.04 1141.98 2969.86 1141.98C2913.63 1141.98 2867.15 1125.6 2830.4 1092.84C2793.44 1059.86 2774.95 1017.69 2774.95 966.336ZM3028.62 924.5C3019.55 876.909 2993.65 853.113 2950.93 853.113C2917.28 853.113 2891.72 867.612 2874.23 896.609C2868.92 905.464 2864.82 915.203 2861.95 925.828C2867.26 926.049 2873.79 926.271 2881.53 926.492H2906.11C2914.3 926.714 2922.15 926.824 2929.68 926.824H2948.61C2959.89 926.824 2970.96 926.714 2981.81 926.492L3009.03 925.496C3016.34 925.275 3022.87 924.943 3028.62 924.5ZM3267.69 1099.81C3267.69 1118.85 3268.13 1131.24 3269.02 1137H3186.34V790.027H3267.69V815.594C3286.5 794.122 3306.2 783.387 3326.79 783.387C3347.6 783.387 3363.98 785.932 3375.93 791.023L3369.95 880.34L3368.62 881.336C3360.88 867.612 3344.83 860.75 3320.48 860.75C3311.18 860.75 3301.67 863.96 3291.93 870.379C3282.41 876.577 3274.33 884.878 3267.69 895.281V1099.81ZM3493.47 1099.81C3493.47 1118.85 3493.91 1131.24 3494.8 1137H3410.46V642.273H3493.47V1099.81ZM3555.23 1252.55L3577.14 1234.95C3610.12 1208.17 3637.46 1168.65 3659.15 1116.41L3674.43 1079.56L3547.26 790.027H3640.23L3719.91 990.574L3793.96 790.027H3889.58C3878.07 805.965 3864.02 835.626 3847.41 879.012L3797.61 1002.2C3730.98 1158.91 3678.74 1252.33 3640.89 1282.43L3555.23 1252.55ZM4081.83 1063.95C4110.38 1063.95 4129.97 1056.54 4140.6 1041.71H4143.25L4144.25 1118.74C4133.4 1129.58 4113.26 1136.78 4083.82 1140.32C4075.85 1141.43 4065.89 1141.98 4053.94 1141.98C4042.21 1141.98 4029.37 1139.77 4015.42 1135.34C4001.7 1130.91 3989.97 1123.72 3980.23 1113.76C3960.08 1093.17 3950.01 1060.96 3950.01 1017.14V866.395H3899.87C3899.65 859.975 3899.54 853.445 3899.54 846.805V795.672C3899.54 791.909 3899.65 790.027 3899.87 790.027H3950.01V695.398H4031.36V790.027H4122.67V866.395H4031.36V1001.86C4031.36 1036.62 4040.99 1056.43 4060.25 1061.3C4066.44 1063.07 4073.64 1063.95 4081.83 1063.95ZM4201.36 691.082C4219.07 663.413 4237.55 639.064 4256.81 618.035L4328.2 674.148C4318.68 685.88 4309.82 697.391 4301.63 708.68C4301.63 708.68 4293.11 720.743 4276.07 744.871L4201.36 691.082ZM4288.68 1099.81C4288.68 1118.85 4289.13 1131.24 4290.01 1137H4205.68V790.027H4288.68V1099.81ZM4653.92 1104.79C4629.13 1129.58 4590.28 1141.98 4537.37 1141.98C4486.02 1141.98 4444.07 1126.38 4411.53 1095.16C4378.55 1063.51 4362.06 1021.45 4362.06 968.992C4362.06 915.646 4378.33 871.818 4410.87 837.508C4445.4 801.427 4491.55 783.387 4549.33 783.387C4590.28 783.387 4624.59 792.352 4652.26 810.281L4638.98 895.281L4636.65 894.949C4626.03 882.111 4614.85 873.699 4603.12 869.715C4584.08 863.074 4565.04 859.754 4546.01 859.754C4526.97 859.754 4512.03 862.189 4501.18 867.059C4490.34 871.928 4481.04 878.68 4473.29 887.312C4457.8 905.021 4450.05 928.484 4450.05 957.703C4450.05 1009.5 4467.98 1043.37 4503.84 1059.3C4516.24 1064.62 4529.3 1067.27 4543.02 1067.27C4556.96 1067.27 4569.03 1066.06 4579.21 1063.62C4589.61 1061.19 4599.02 1057.87 4607.43 1053.66C4625.36 1044.81 4637.54 1034.51 4643.96 1022.78L4646.28 1023.78L4653.92 1104.79ZM4840.19 1141.98C4777.77 1141.98 4730.73 1130.58 4699.07 1107.78C4699.52 1101.14 4700.18 1093.61 4701.07 1085.2L4704.05 1061.3C4705.83 1045.58 4706.93 1035.84 4707.37 1032.08C4707.82 1028.09 4708.15 1025.99 4708.37 1025.77C4708.59 1025.33 4710.36 1027.1 4713.68 1031.08C4717 1034.85 4723.31 1039.49 4732.61 1045.03C4741.91 1050.56 4752.64 1055.43 4764.82 1059.64C4791.16 1068.71 4818.61 1073.25 4847.16 1073.25C4885.45 1073.25 4904.6 1060.52 4904.6 1035.07C4904.6 1026.88 4900.95 1020.79 4893.64 1016.8C4880.58 1010.16 4861.33 1005.18 4835.87 1001.86C4810.64 998.322 4789.94 993.23 4773.78 986.59C4757.62 979.949 4744.45 971.98 4734.27 962.684C4715.45 945.197 4706.05 922.286 4706.05 893.953C4706.05 859.422 4719.33 832.306 4745.89 812.605C4772.23 793.126 4808.64 783.387 4855.13 783.387C4901.17 783.387 4940.46 796.447 4973 822.566C4971.45 828.322 4969.79 833.855 4968.02 839.168C4962.93 853.777 4959.17 864.292 4956.73 870.711L4949.09 890.301C4948.65 892.072 4948.32 892.957 4948.1 892.957C4947.65 892.957 4945.88 890.633 4942.78 885.984C4928.84 869.826 4907.15 859.201 4877.71 854.109C4868.63 852.339 4859.33 851.453 4849.82 851.453C4809.53 851.453 4789.39 863.628 4789.39 887.977C4789.39 896.388 4793.59 902.807 4802 907.234C4817.72 915.646 4839.19 921.844 4866.42 925.828C4893.87 929.812 4914.67 935.236 4928.84 942.098C4943.01 948.738 4954.41 956.818 4963.04 966.336C4978.98 983.602 4986.95 1006.51 4986.95 1035.07C4986.95 1066.28 4974.44 1091.62 4949.43 1111.1C4923.31 1131.69 4886.89 1141.98 4840.19 1141.98Z" fill="#040404"/>
</g>
<defs>
<clipPath id="clip0_28_14">
<rect width="5188" height="1719" fill="white"/>
</clipPath>
<clipPath id="clip1_28_14">
<rect width="1071" height="1069" fill="white" transform="translate(186 325)"/>
</clipPath>
</defs>
</svg>
