<svg width="5188" height="1719" viewBox="0 0 5188 1719" fill="none" xmlns="http://www.w3.org/2000/svg">
<g clip-path="url(#clip0_28_2)">
<path d="M906.259 322H585.407C585.407 322.825 585.158 960.727 585.158 961.526C585.465 963.91 585.465 963.91 588.923 966.68C589.598 967.209 684.701 1040 685.361 1040.52C687.43 1039.5 689.418 1038.48 691.374 1037.25C695.13 1034.86 698.964 1032.66 702.966 1030.7C726.208 1019.78 751.526 1017.35 775.968 1025.74C779.741 1027.05 783.356 1027.97 787.314 1028.51C787.624 1028.12 787.929 1027.74 788.231 1027.36L788.782 1026.67C789.473 1025.81 901.699 890.466 902.368 889.627C907.456 883.156 907.456 883.156 907.257 864.217C907.232 861.963 906.255 324.254 906.259 322Z" fill="white"/>
<path d="M1260.22 708.959C1272.63 679.393 1281.2 645.444 1279.83 613.21C1258.52 619.152 1237.53 626.72 1205.99 619.152C1201.58 617.71 1197.5 616.642 1192.88 616.212C1190.65 618.115 966.549 892.206 964.508 894.311C959.49 900.254 959.49 900.254 959.734 916.493C959.766 918.461 960.564 1248.74 960.56 1250.7C960.653 1297.39 960.812 1344.08 960.982 1390.77L961.048 1390.77C968.211 1390.81 975.374 1390.85 982.537 1390.87C986.223 1390.88 989.909 1390.89 993.595 1390.91C1008.35 1391 1023.1 1391.39 1037.75 1389.3L1037.75 1389.3C1039.36 1389.03 1039.36 1389.03 1040.95 1388.77C1074.51 1383.57 1107.12 1372.7 1136.75 1355.97C1137.48 1355.55 1138.19 1355.15 1138.9 1354.75C1150.89 1348.13 1161.94 1340.67 1172.81 1332.33C1173.52 1331.79 1174.2 1331.26 1174.88 1330.73C1183.49 1324.08 1191.32 1316.89 1198.43 1308.65C1200.16 1306.63 1201.9 1304.68 1203.76 1302.78C1218.79 1287.97 1231.59 1271.46 1242.32 1253.3C1242.84 1252.4 1243.35 1251.54 1243.85 1250.67C1269.59 1206.52 1282.24 1153.73 1280.9 1102.73C1280.87 1102 1280.85 1101.28 1280.83 1100.56C1280.02 1071.59 1274.31 1043.08 1264.72 1015.77C1263.84 1013.3 1262.95 1010.83 1262.11 1008.35C1255.05 987.179 1244.31 967.518 1231.3 949.443C1230.81 948.765 1230.34 948.109 1229.86 947.451C1224.43 939.907 1218.96 932.482 1212.68 925.624C1210.22 923.001 1207.83 920.388 1205.56 917.594C1199.4 909.795 1192.66 903.634 1184.94 897.415C1183.25 896.081 1181.57 894.747 1179.88 893.412C1174.38 888.913 1168.81 884.579 1163.01 880.465C1159.59 878.044 1156.18 875.617 1152.82 873.113C1146.14 868.052 1139.38 863.117 1132.54 858.258C1132.06 857.915 1131.59 857.578 1131.11 857.243L1129.9 856.386C1136.28 851.304 1142.68 846.412 1149.58 842.063C1164.09 832.948 1178.99 822.791 1190.94 810.426C1191.91 809.379 1191.91 809.379 1192.88 808.351C1198.23 802.631 1203.56 796.897 1208.68 790.963C1210.24 789.156 1211.8 787.403 1213.49 785.722C1217.11 782.222 1220.4 778.611 1223.49 774.634C1224.02 773.934 1224.53 773.255 1225.05 772.575C1237.55 756.084 1249.14 737.925 1256.59 718.536C1257.75 715.311 1258.91 712.122 1260.22 708.959Z" fill="white"/>
<path d="M531.432 322H211.579V962.463H211.58C214.578 962.463 214.578 962.463 216.19 960.888C218.786 957.656 282.308 890.015 285.545 887.409C286.775 883.645 286.725 882.786 284.983 879.091C274.038 858.81 270.502 835.355 275.312 812.785C282.418 785.466 296.659 763.363 320.787 748.273C343.879 735.35 369.236 730.093 395.334 736.401C396.408 736.707 397.45 737.004 398.493 737.3C415.708 742.141 434.415 752.787 445.639 766.955C446.662 768.276 447.698 769.588 448.789 770.854C452.114 774.7 455.228 778.639 458.034 782.881C470.014 803.434 473.542 830.802 468 853.7C466.548 859.59 465.223 865.373 464.463 871.397C465.28 872.041 522.58 915.741 523.373 916.367C526.069 918.501 528.294 919.863 531.432 921.433V322Z" fill="white"/>
<path d="M440.849 918.306C440.849 918.306 435.712 913.904 432.489 912.663C432.489 912.663 430.479 912.427 427.344 914.55L427.344 914.551C418.103 920.57 418.103 920.57 408.013 925.12C387.43 934.027 362.118 934.805 341.131 926.822C335.689 924.693 330.342 922.296 324.528 921.433C321.779 923.16 218.213 1032.98 215.802 1035.16C209.743 1041.97 209.743 1041.97 210.15 1069.98C210.215 1074.2 211.58 1390.77 211.58 1390.77H531.433C531.433 1390.77 532.948 996.29 532.54 991.952C530.757 986.365 527.104 984.089 522.338 981.144C519.531 979.62 519.531 979.62 517.552 977.999L440.849 918.306Z" fill="white"/>
<path d="M906.259 968.467H903.26C902.822 968.931 833.717 1054.02 833.292 1054.47C830.625 1057.49 827.447 1060.29 827.295 1064.54L829.294 1066.54C840.791 1085.07 844.949 1104.35 844.623 1125.85C843.765 1147.64 834.431 1171.57 818.463 1186.66C817.727 1187.33 817.014 1187.98 816.3 1188.63C795.395 1208.1 772.106 1219.25 743.102 1219C717.818 1218.34 693.972 1208 676.396 1189.77C675.706 1189.04 675.035 1188.33 674.366 1187.63C664.119 1177.11 656.797 1165.48 652.025 1151.56C651.7 1150.57 651.698 1150.57 651.382 1149.62L651.376 1149.6C645.42 1131.76 645.239 1112.12 650.354 1094.06C650.733 1092.32 653.375 1081.55 653.375 1081.55C652.661 1080.98 594.819 1036.8 594.126 1036.25C591.142 1033.86 589.194 1033.03 585.407 1031.51V1390.77H906.259V968.467Z" fill="white"/>
<path d="M1150.43 365.825C1093.32 325.392 1028.41 322 960.234 322V815.357H962.233C963.437 813.957 1146.71 590.092 1147.84 588.631C1149.78 586.375 1149.78 586.375 1151.15 584.189C1151.67 581.007 1151.34 579.558 1149.83 576.704C1139.32 560.926 1134.3 540.381 1135 521.46C1135.05 520.673 1135.1 519.907 1135.15 519.142C1136.17 496.381 1146.01 472.931 1161.68 456.519C1162.51 455.695 1163.33 454.895 1164.14 454.095C1177.62 440.655 1194.86 432.506 1213.17 427.783L1216.12 427.076C1216.12 424.074 1216.12 424.074 1214.98 422.487C1211.01 418.228 1207.22 413.842 1203.5 409.376C1199 403.972 1194.36 398.949 1188.91 394.486C1188.3 393.998 1187.72 393.525 1187.13 393.051C1176.9 384.72 1166.42 376.788 1155.53 369.347C1153.83 368.185 1152.12 367.016 1150.43 365.825Z" fill="white"/>
<ellipse cx="370.426" cy="832.369" rx="47.4781" ry="47.034" fill="white"/>
<ellipse cx="746.252" cy="1120.58" rx="47.4781" ry="47.034" fill="white"/>
<ellipse cx="1233.03" cy="525.147" rx="47.4781" ry="47.034" fill="white"/>
<path d="M1740.02 1091.79C1723.86 1104.63 1702.83 1114.59 1676.93 1121.68C1651.03 1128.76 1619.16 1132.3 1581.3 1132.3C1543.67 1132.3 1503.61 1128.87 1461.11 1122.01V684.391C1504.05 677.529 1541.24 674.098 1572.67 674.098C1604.33 674.098 1630.22 677.086 1650.37 683.062C1670.73 689.039 1687.33 697.118 1700.17 707.301C1725.41 727.001 1738.02 752.568 1738.02 784C1738.02 815.211 1726.62 841.109 1703.82 861.695C1730.83 870.107 1751.75 886.044 1766.58 909.508C1780.08 930.536 1786.83 953.889 1786.83 979.566C1786.83 1005.02 1783.07 1026.83 1775.54 1044.98C1768.24 1063.13 1756.4 1078.73 1740.02 1091.79ZM1549.1 849.41C1558.39 850.96 1570.02 851.734 1583.96 851.734C1597.91 851.734 1609.31 849.964 1618.16 846.422C1627.24 842.659 1634.21 838.01 1639.08 832.477C1647.05 823.401 1651.03 810.784 1651.03 794.625C1651.03 760.758 1631.11 743.824 1591.27 743.824C1574.44 743.824 1560.39 744.488 1549.1 745.816V849.41ZM1598.24 920.465C1579.64 920.465 1563.26 921.682 1549.1 924.117V1054.61C1564.59 1058.59 1580.86 1060.58 1597.91 1060.58C1614.95 1060.58 1629.89 1058.59 1642.73 1054.61C1655.79 1050.4 1666.75 1044.76 1675.6 1037.67C1693.53 1023.06 1702.5 1004.47 1702.5 981.891C1702.5 940.94 1667.74 920.465 1598.24 920.465ZM1833.98 953.336C1833.98 927.438 1838.41 903.421 1847.26 881.285C1856.12 859.15 1868.62 839.781 1884.78 823.18C1919.31 787.984 1964.47 770.387 2020.25 770.387C2067.4 770.387 2105.25 785.992 2133.8 817.203C2161.92 847.307 2175.97 885.159 2175.97 930.758C2175.97 948.245 2174.64 960.198 2171.99 966.617C2149.85 972.815 2104.81 975.914 2036.85 975.914H1919.98C1925.73 999.599 1939.12 1018.08 1960.15 1031.36C1981.18 1044.42 2008.52 1050.95 2042.16 1050.95C2077.36 1050.95 2107.57 1044.64 2132.81 1032.03C2139.45 1028.71 2144.43 1025.61 2147.75 1022.73C2147.31 1032.03 2146.75 1041.55 2146.09 1051.29L2142.44 1103.08C2125.61 1114.59 2098.39 1122.56 2060.76 1126.99C2049.69 1128.32 2039.07 1128.98 2028.88 1128.98C1972.66 1128.98 1926.17 1112.6 1889.43 1079.84C1852.46 1046.86 1833.98 1004.69 1833.98 953.336ZM2087.65 911.5C2078.58 863.909 2052.68 840.113 2009.96 840.113C1976.31 840.113 1950.74 854.612 1933.26 883.609C1927.95 892.464 1923.85 902.203 1920.97 912.828C1926.29 913.049 1932.82 913.271 1940.56 913.492H1965.13C1973.32 913.714 1981.18 913.824 1988.71 913.824H2007.63C2018.92 913.824 2029.99 913.714 2040.84 913.492L2068.06 912.496C2075.37 912.275 2081.9 911.943 2087.65 911.5ZM2402.42 1050.95C2430.97 1050.95 2450.56 1043.54 2461.19 1028.71H2463.84L2464.84 1105.74C2453.99 1116.58 2433.85 1123.78 2404.41 1127.32C2396.44 1128.43 2386.48 1128.98 2374.53 1128.98C2362.8 1128.98 2349.96 1126.77 2336.01 1122.34C2322.29 1117.91 2310.56 1110.72 2300.82 1100.76C2280.67 1080.17 2270.6 1047.96 2270.6 1004.14V853.395H2220.46C2220.24 846.975 2220.13 840.445 2220.13 833.805V782.672C2220.13 778.909 2220.24 777.027 2220.46 777.027H2270.6V682.398H2351.95V777.027H2443.26V853.395H2351.95V988.863C2351.95 1023.62 2361.58 1043.43 2380.84 1048.3C2387.03 1050.07 2394.23 1050.95 2402.42 1050.95ZM2686.64 1050.95C2715.19 1050.95 2734.78 1043.54 2745.41 1028.71H2748.06L2749.06 1105.74C2738.21 1116.58 2718.07 1123.78 2688.63 1127.32C2680.66 1128.43 2670.7 1128.98 2658.75 1128.98C2647.01 1128.98 2634.18 1126.77 2620.23 1122.34C2606.51 1117.91 2594.77 1110.72 2585.04 1100.76C2564.89 1080.17 2554.82 1047.96 2554.82 1004.14V853.395H2504.68C2504.46 846.975 2504.35 840.445 2504.35 833.805V782.672C2504.35 778.909 2504.46 777.027 2504.68 777.027H2554.82V682.398H2636.17V777.027H2727.48V853.395H2636.17V988.863C2636.17 1023.62 2645.8 1043.43 2665.05 1048.3C2671.25 1050.07 2678.45 1050.95 2686.64 1050.95ZM2800.19 953.336C2800.19 927.438 2804.62 903.421 2813.47 881.285C2822.33 859.15 2834.83 839.781 2850.99 823.18C2885.52 787.984 2930.68 770.387 2986.46 770.387C3033.61 770.387 3071.46 785.992 3100.02 817.203C3128.13 847.307 3142.18 885.159 3142.18 930.758C3142.18 948.245 3140.86 960.198 3138.2 966.617C3116.06 972.815 3071.02 975.914 3003.06 975.914H2886.19C2891.94 999.599 2905.33 1018.08 2926.36 1031.36C2947.39 1044.42 2974.73 1050.95 3008.38 1050.95C3043.57 1050.95 3073.79 1044.64 3099.02 1032.03C3105.66 1028.71 3110.64 1025.61 3113.96 1022.73C3113.52 1032.03 3112.96 1041.55 3112.3 1051.29L3108.65 1103.08C3091.83 1114.59 3064.6 1122.56 3026.97 1126.99C3015.9 1128.32 3005.28 1128.98 2995.09 1128.98C2938.87 1128.98 2892.39 1112.6 2855.64 1079.84C2818.67 1046.86 2800.19 1004.69 2800.19 953.336ZM3053.86 911.5C3044.79 863.909 3018.89 840.113 2976.17 840.113C2942.52 840.113 2916.96 854.612 2899.47 883.609C2894.16 892.464 2890.06 902.203 2887.18 912.828C2892.5 913.049 2899.03 913.271 2906.77 913.492H2931.34C2939.53 913.714 2947.39 913.824 2954.92 913.824H2973.84C2985.13 913.824 2996.2 913.714 3007.05 913.492L3034.27 912.496C3041.58 912.275 3048.11 911.943 3053.86 911.5ZM3292.93 1086.81C3292.93 1105.85 3293.37 1118.24 3294.25 1124H3211.58V777.027H3292.93V802.594C3311.74 781.122 3331.44 770.387 3352.03 770.387C3372.83 770.387 3389.21 772.932 3401.17 778.023L3395.19 867.34L3393.86 868.336C3386.12 854.612 3370.07 847.75 3345.72 847.75C3336.42 847.75 3326.9 850.96 3317.16 857.379C3307.65 863.577 3299.57 871.878 3292.93 882.281V1086.81ZM3518.71 1086.81C3518.71 1105.85 3519.15 1118.24 3520.04 1124H3435.7V629.273H3518.71V1086.81ZM3580.46 1239.55L3602.38 1221.95C3635.36 1195.17 3662.7 1155.65 3684.39 1103.41L3699.66 1066.56L3572.5 777.027H3665.46L3745.15 977.574L3819.2 777.027H3914.82C3903.31 792.965 3889.25 822.626 3872.65 866.012L3822.85 989.195C3756.22 1145.91 3703.98 1239.33 3666.13 1269.43L3580.46 1239.55ZM4107.07 1050.95C4135.62 1050.95 4155.21 1043.54 4165.84 1028.71H4168.49L4169.49 1105.74C4158.64 1116.58 4138.5 1123.78 4109.06 1127.32C4101.09 1128.43 4091.13 1128.98 4079.18 1128.98C4067.44 1128.98 4054.61 1126.77 4040.66 1122.34C4026.94 1117.91 4015.2 1110.72 4005.46 1100.76C3985.32 1080.17 3975.25 1047.96 3975.25 1004.14V853.395H3925.11C3924.89 846.975 3924.78 840.445 3924.78 833.805V782.672C3924.78 778.909 3924.89 777.027 3925.11 777.027H3975.25V682.398H4056.6V777.027H4147.91V853.395H4056.6V988.863C4056.6 1023.62 4066.23 1043.43 4085.48 1048.3C4091.68 1050.07 4098.88 1050.95 4107.07 1050.95ZM4226.6 678.082C4244.31 650.413 4262.79 626.064 4282.05 605.035L4353.43 661.148C4343.92 672.88 4335.06 684.391 4326.87 695.68C4326.87 695.68 4318.35 707.743 4301.3 731.871L4226.6 678.082ZM4313.92 1086.81C4313.92 1105.85 4314.36 1118.24 4315.25 1124H4230.91V777.027H4313.92V1086.81ZM4679.16 1091.79C4654.36 1116.58 4615.52 1128.98 4562.61 1128.98C4511.26 1128.98 4469.31 1113.38 4436.77 1082.16C4403.79 1050.51 4387.3 1008.45 4387.3 955.992C4387.3 902.646 4403.57 858.818 4436.11 824.508C4470.64 788.427 4516.79 770.387 4574.57 770.387C4615.52 770.387 4649.83 779.352 4677.5 797.281L4664.21 882.281L4661.89 881.949C4651.27 869.111 4640.09 860.699 4628.36 856.715C4609.32 850.074 4590.28 846.754 4571.25 846.754C4552.21 846.754 4537.27 849.189 4526.42 854.059C4515.58 858.928 4506.28 865.68 4498.53 874.312C4483.04 892.021 4475.29 915.484 4475.29 944.703C4475.29 996.5 4493.22 1030.37 4529.08 1046.3C4541.47 1051.62 4554.53 1054.27 4568.26 1054.27C4582.2 1054.27 4594.27 1053.06 4604.45 1050.62C4614.85 1048.19 4624.26 1044.87 4632.67 1040.66C4650.6 1031.81 4662.78 1021.51 4669.2 1009.78L4671.52 1010.78L4679.16 1091.79ZM4865.43 1128.98C4803 1128.98 4755.97 1117.58 4724.31 1094.78C4724.76 1088.14 4725.42 1080.61 4726.3 1072.2L4729.29 1048.3C4731.06 1032.58 4732.17 1022.84 4732.61 1019.08C4733.06 1015.09 4733.39 1012.99 4733.61 1012.77C4733.83 1012.33 4735.6 1014.1 4738.92 1018.08C4742.24 1021.85 4748.55 1026.49 4757.85 1032.03C4767.14 1037.56 4777.88 1042.43 4790.05 1046.64C4816.4 1055.71 4843.84 1060.25 4872.4 1060.25C4910.69 1060.25 4929.84 1047.52 4929.84 1022.07C4929.84 1013.88 4926.19 1007.79 4918.88 1003.8C4905.82 997.164 4886.57 992.184 4861.11 988.863C4835.88 985.322 4815.18 980.23 4799.02 973.59C4782.86 966.949 4769.69 958.98 4759.51 949.684C4740.69 932.197 4731.29 909.286 4731.29 880.953C4731.29 846.422 4744.57 819.306 4771.13 799.605C4797.47 780.126 4833.88 770.387 4880.37 770.387C4926.41 770.387 4965.7 783.447 4998.24 809.566C4996.69 815.322 4995.03 820.855 4993.26 826.168C4988.17 840.777 4984.4 851.292 4981.97 857.711L4974.33 877.301C4973.89 879.072 4973.56 879.957 4973.34 879.957C4972.89 879.957 4971.12 877.633 4968.02 872.984C4954.08 856.826 4932.39 846.201 4902.95 841.109C4893.87 839.339 4884.57 838.453 4875.05 838.453C4834.77 838.453 4814.62 850.628 4814.62 874.977C4814.62 883.388 4818.83 889.807 4827.24 894.234C4842.96 902.646 4864.43 908.844 4891.66 912.828C4919.1 916.812 4939.91 922.236 4954.08 929.098C4968.24 935.738 4979.64 943.818 4988.28 953.336C5004.21 970.602 5012.18 993.512 5012.18 1022.07C5012.18 1053.28 4999.68 1078.62 4974.66 1098.1C4948.54 1118.69 4912.13 1128.98 4865.43 1128.98Z" fill="white"/>
</g>
<defs>
<clipPath id="clip0_28_2">
<rect width="5188" height="1719" fill="white"/>
</clipPath>
</defs>
</svg>
