<svg xmlns="http://www.w3.org/2000/svg" width="500" height="500" fill="none" xmlns:v="https://vecta.io/nano"><g clip-path="url(#A)"><circle cx="250" cy="250" r="250" fill="#fff"/><g clip-path="url(#B)"><path d="M72.18 314.72c-48.54-133.36-20.27-194 113.1-242.54s194-20.27 242.54 113.1 20.27 194-113.1 242.54-194 20.27-242.54-113.1z" fill="#34373f"/><g fill="#fff"><path d="M187.919 172.97h-8.4c-7.397-.255-14.697 1.735-20.94 5.71a23.24 23.24 0 0 0-7.56 8.71c-1.943 4.05-2.909 8.499-2.82 12.99v120.51a4.15 4.15 0 0 0 .318 1.594c.209.505.517.964.904 1.351a4.14 4.14 0 0 0 1.353.901c.506.208 1.048.315 1.595.314h16.4c.547.001 1.089-.106 1.595-.314s.966-.515 1.353-.901.695-.846.904-1.351a4.15 4.15 0 0 0 .318-1.594v-84.9h15c.547.001 1.089-.106 1.595-.314s.966-.515 1.353-.901.695-.846.904-1.351a4.15 4.15 0 0 0 .318-1.594v-14.06c.001-.548-.106-1.091-.315-1.598s-.516-.966-.903-1.354a4.17 4.17 0 0 0-1.355-.903c-.506-.21-1.049-.317-1.597-.315h-15v-10.68c-.08-1.783.164-3.565.72-5.26a3.29 3.29 0 0 1 .82-1.3 3.69 3.69 0 0 1 2-.8 28.34 28.34 0 0 1 4.31-.2h7.13c.547.001 1.089-.106 1.595-.314s.966-.515 1.353-.901.695-.846.904-1.351a4.15 4.15 0 0 0 .318-1.594v-14.06c.001-.548-.106-1.091-.315-1.598s-.516-.966-.903-1.354a4.17 4.17 0 0 0-1.355-.903c-.506-.21-1.049-.317-1.597-.315zm99.191 77.23c.146-5.227-.853-10.422-2.926-15.222a35.88 35.88 0 0 0-9.074-12.568 46.9 46.9 0 0 0-31.38-10.37 51.53 51.53 0 0 0-32.42 10.25c-4.074 3.166-7.413 7.179-9.785 11.761a35.65 35.65 0 0 0-3.955 14.779c-.027.563.061 1.125.257 1.653a4.17 4.17 0 0 0 2.264 2.372c.518.222 1.076.336 1.639.335h17.34a4.17 4.17 0 0 0 2.813-1.095c.768-.703 1.245-1.668 1.337-2.705a13.69 13.69 0 0 1 1.75-5.512c.969-1.692 2.289-3.157 3.87-4.298a24.28 24.28 0 0 1 14.84-4.36c5.075-.297 10.088 1.244 14.12 4.34 1.503 1.321 2.693 2.961 3.484 4.8s1.161 3.83 1.086 5.83v.59a5.3 5.3 0 0 1-.15 1.43l-.16.36a2.45 2.45 0 0 1-1.08.65c-2.331.757-4.739 1.25-7.18 1.47l-13.79 1.71c-10.34.794-20.443 3.507-29.79 8a28.73 28.73 0 0 0-10.77 10.29c-2.832 5.028-4.243 10.732-4.08 16.5-.073 5.254.988 10.463 3.11 15.27a31.63 31.63 0 0 0 14.72 15.1 48.93 48.93 0 0 0 22.28 4.85 42.31 42.31 0 0 0 23.17-5.87c1.308-.828 2.552-1.754 3.72-2.77v3.12a4.15 4.15 0 0 0 .318 1.594c.209.506.517.965.904 1.351a4.14 4.14 0 0 0 1.353.901c.506.209 1.048.315 1.595.314h8l12.58-46.82-.01-28.03zm-24.74 31.64a20.8 20.8 0 0 1-5.54 14.92c-2.563 2.311-5.569 4.078-8.834 5.196a25.54 25.54 0 0 1-10.166 1.304 22.88 22.88 0 0 1-13.14-3.22c-1.229-.847-2.234-1.979-2.93-3.3a10.08 10.08 0 0 1-1-4.59v-.11a9.47 9.47 0 0 1 1.34-5.13c1.675-2.368 4.044-4.157 6.78-5.12 3.709-1.431 7.582-2.392 11.53-2.86 5.93-.83 12-1.72 17.09-2.71 1.81-.35 3.42-.73 4.93-1.13l-.06 6.75z"/></g><path d="M356.781 161.13c-.389-.51-.89-.922-1.464-1.207s-1.206-.433-1.846-.433h-20.9c-.914.004-1.801.309-2.524.868a4.15 4.15 0 0 0-1.476 2.222l-41.461 154.2-1.999 7.62-2.811 10.46c-.165.615-.186 1.261-.063 1.886a4.17 4.17 0 0 0 2.228 2.924c.57.285 1.198.436 1.836.44h20.9c.912-.004 1.797-.308 2.52-.864s1.243-1.335 1.479-2.216l46.301-172.28a4.18 4.18 0 0 0-.72-3.62z" fill="#a19af8"/></g></g><defs><clipPath id="A"><path fill="#fff" d="M0 0h500v500H0z"/></clipPath><clipPath id="B"><path fill="#fff" transform="translate(50 50)" d="M0 0h400v400H0z"/></clipPath></defs></svg>